<svg width="1000" height="746" viewBox="0 0 1000 746" fill="none" xmlns="http://www.w3.org/2000/svg">
<path d="M1000 654.8H0V655.3H1000V654.8Z" fill="#E6E6E6"/>
<path d="M213.68 673.78H144.88V674.28H213.68V673.78Z" fill="#E6E6E6"/>
<path d="M596.44 677.34H575.88V677.84H596.44V677.34Z" fill="#E6E6E6"/>
<path d="M273.32 680.9H234.6V681.4H273.32V680.9Z" fill="#E6E6E6"/>
<path d="M839.58 679.72H788.22V680.22H839.58V679.72Z" fill="#E6E6E6"/>
<path d="M753.2 672.62H718.12V673.12H753.2V672.62Z" fill="#E6E6E6"/>
<path d="M546.98 671.82H359.62V672.32H546.98V671.82Z" fill="#E6E6E6"/>
<path d="M474 565.6H87.8199C84.7946 565.595 81.895 564.389 79.7577 562.248C77.6203 560.107 76.4199 557.205 76.4199 554.18V11.32C76.4463 8.31205 77.6583 5.43596 79.7928 3.31644C81.9273 1.19692 84.8119 0.00515278 87.8199 0H474C477.029 0 479.933 1.20318 482.075 3.34484C484.217 5.48651 485.42 8.39123 485.42 11.42V554.18C485.42 557.209 484.217 560.114 482.075 562.255C479.933 564.397 477.029 565.6 474 565.6ZM87.8199 0.400002C84.9272 0.4053 82.1548 1.55813 80.1112 3.60545C78.0677 5.65278 76.9199 8.4273 76.9199 11.32V554.18C76.9199 557.073 78.0677 559.847 80.1112 561.895C82.1548 563.942 84.9272 565.095 87.8199 565.1H474C476.894 565.095 479.669 563.943 481.716 561.896C483.762 559.849 484.915 557.075 484.92 554.18V11.32C484.915 8.42546 483.762 5.65098 481.716 3.60423C479.669 1.55748 476.894 0.405288 474 0.400002H87.8199Z" fill="#E6E6E6"/>
<path d="M906.62 565.6H520.42C517.393 565.595 514.491 564.39 512.351 562.249C510.21 560.109 509.005 557.207 509 554.18V11.32C509.032 8.31023 510.248 5.43415 512.386 3.31519C514.523 1.19622 517.41 0.00509658 520.42 0H906.62C909.625 0.010409 912.504 1.2045 914.634 3.32346C916.764 5.44241 917.974 8.3155 918 11.32V554.18C918 557.202 916.802 560.101 914.669 562.241C912.536 564.382 909.642 565.589 906.62 565.6ZM520.42 0.400002C517.525 0.405288 514.751 1.55748 512.704 3.60423C510.657 5.65098 509.505 8.42546 509.5 11.32V554.18C509.505 557.075 510.657 559.849 512.704 561.896C514.751 563.943 517.525 565.095 520.42 565.1H906.62C909.515 565.095 912.289 563.943 914.336 561.896C916.383 559.849 917.535 557.075 917.54 554.18V11.32C917.535 8.42546 916.383 5.65098 914.336 3.60423C912.289 1.55748 909.515 0.405288 906.62 0.400002H520.42Z" fill="#E6E6E6"/>
<path d="M687.64 459.22C686.54 459.22 685.44 459.22 684.32 459.32C677.356 459.823 670.589 461.859 664.504 465.283C658.419 468.707 653.166 473.434 649.122 479.125C645.078 484.817 642.342 491.333 641.111 498.206C639.88 505.078 640.183 512.138 642 518.88C647.167 539.026 649.661 559.764 649.42 580.56V641.12C649.42 643.242 650.263 645.277 651.763 646.777C653.263 648.277 655.298 649.12 657.42 649.12H849.64V459.22H687.64Z" fill="#F0F0F0"/>
<path d="M784.28 533.8H446.26V649.06H784.28V533.8Z" fill="#F0F0F0"/>
<path d="M339.5 395.72H664.24C673.732 395.741 682.827 399.527 689.531 406.246C696.235 412.965 700 422.068 700 431.56V559.86H303.66V431.56C303.66 422.055 307.436 412.939 314.157 406.217C320.879 399.496 329.995 395.72 339.5 395.72Z" fill="#E6E6E6"/>
<path d="M382.88 395.72H711.08C715.558 395.72 719.992 396.602 724.129 398.316C728.267 400.029 732.026 402.541 735.192 405.708C738.359 408.874 740.87 412.633 742.584 416.77C744.298 420.908 745.18 425.342 745.18 429.82V559.82H348.78V429.82C348.78 420.776 352.372 412.103 358.767 405.708C365.162 399.313 373.836 395.72 382.88 395.72Z" fill="#FAFAFA"/>
<path d="M457.56 523.28H782C784.758 523.28 787.403 524.376 789.354 526.326C791.304 528.276 792.4 530.922 792.4 533.68V559.82C792.4 562.578 791.304 565.224 789.354 567.174C787.403 569.124 784.758 570.22 782 570.22H457.56C456.738 570.22 455.949 569.893 455.368 569.312C454.787 568.731 454.46 567.942 454.46 567.12V526.38C454.46 525.558 454.787 524.769 455.368 524.188C455.949 523.607 456.738 523.28 457.56 523.28Z" fill="#E6E6E6"/>
<path d="M286.64 459.22C285.54 459.22 284.44 459.22 283.32 459.32C276.351 459.812 269.577 461.84 263.484 465.258C257.391 468.676 252.13 473.399 248.078 479.09C244.025 484.781 241.282 491.298 240.044 498.173C238.807 505.049 239.106 512.113 240.92 518.86C246.087 539.006 248.581 559.744 248.34 580.54V641.1C248.34 643.222 249.183 645.257 250.683 646.757C252.183 648.257 254.218 649.1 256.34 649.1H448.56V459.22H286.64Z" fill="#F0F0F0"/>
<path d="M495.86 506.56C495.861 494.271 491.083 482.463 482.537 473.632C473.99 464.801 462.344 459.64 450.061 459.241C437.778 458.841 425.821 463.233 416.718 471.488C407.615 479.744 402.079 491.217 401.28 503.48C400.928 508.662 401.441 513.867 402.8 518.88C407.967 539.026 410.462 559.764 410.22 580.56V641.12C410.22 643.242 411.063 645.277 412.563 646.777C414.064 648.277 416.098 649.12 418.22 649.12H478.92C481.042 649.12 483.077 648.277 484.577 646.777C486.077 645.277 486.92 643.242 486.92 641.12V577C486.745 557.498 489.207 538.062 494.24 519.22C495.35 515.093 495.895 510.834 495.86 506.56Z" fill="#FAFAFA"/>
<path d="M846.14 654.82H290C288.473 654.82 287.008 654.213 285.927 653.133C284.847 652.053 284.24 650.588 284.24 649.06H852C852 649.825 851.848 650.582 851.552 651.288C851.257 651.993 850.823 652.633 850.278 653.169C849.732 653.705 849.086 654.127 848.375 654.411C847.665 654.694 846.905 654.833 846.14 654.82Z" fill="#E0E0E0"/>
<path d="M582.1 114.66H239.8V281.34H582.1V114.66Z" fill="#E0E0E0"/>
<path d="M598.54 114.66H251.24V281.34H598.54V114.66Z" fill="#F5F5F5"/>
<path d="M585.4 268.22V127.8L264.38 127.8V268.22H585.4Z" fill="white"/>
<path d="M553.76 210.54V185.44C553.76 172.395 543.185 161.82 530.14 161.82L319.64 161.82C306.595 161.82 296.02 172.395 296.02 185.44V210.54C296.02 223.585 306.595 234.16 319.64 234.16H530.14C543.185 234.16 553.76 223.585 553.76 210.54Z" fill="#F5F5F5"/>
<path d="M745.56 215.78H664.02V300.26H745.56V215.78Z" fill="#E0E0E0"/>
<path d="M753.88 215.78H674.4V300.26H753.88V215.78Z" fill="#F5F5F5"/>
<path d="M747.22 293.62V222.44H681.06V293.62H747.22Z" fill="white"/>
<path d="M714.14 240.04L696.04 271.38H732.24L714.14 240.04Z" fill="#F5F5F5"/>
<path d="M854.22 160.4H772.68V244.88H854.22V160.4Z" fill="#E0E0E0"/>
<path d="M862.56 160.4H783.08V244.88H862.56V160.4Z" fill="#F5F5F5"/>
<path d="M830.9 215.34L838.76 201.74C839.578 200.32 840.007 198.709 840.005 197.07C840.004 195.431 839.571 193.821 838.75 192.403C837.929 190.984 836.749 189.806 835.329 188.988C833.909 188.169 832.299 187.739 830.66 187.74H814.96C813.321 187.739 811.71 188.169 810.29 188.988C808.87 189.806 807.691 190.984 806.87 192.403C806.049 193.821 805.616 195.431 805.614 197.07C805.613 198.709 806.042 200.32 806.86 201.74L814.72 215.34C815.539 216.76 816.719 217.94 818.139 218.76C819.559 219.58 821.17 220.012 822.81 220.012C824.45 220.012 826.061 219.58 827.481 218.76C828.901 217.94 830.08 216.76 830.9 215.34Z" fill="#F5F5F5"/>
<path d="M301.32 645.94H78.7598V654.8H301.32V645.94Z" fill="#E6E6E6"/>
<path d="M132.98 569.12H292.26V523.22H132.98V569.12Z" fill="#F0F0F0"/>
<path d="M132.98 628.7H292.26V582.8H132.98V628.7Z" fill="#F0F0F0"/>
<path d="M231.76 549.32H193.48C192.645 549.315 191.847 548.979 191.258 548.387C190.67 547.795 190.34 546.995 190.34 546.16C190.345 545.329 190.678 544.533 191.265 543.945C191.853 543.358 192.649 543.025 193.48 543.02H231.76C232.591 543.025 233.387 543.358 233.974 543.945C234.562 544.533 234.895 545.329 234.9 546.16C234.9 546.995 234.57 547.795 233.981 548.387C233.393 548.979 232.594 549.315 231.76 549.32Z" fill="#FAFAFA"/>
<path d="M231.76 608.9H193.48C192.647 608.9 191.848 608.569 191.26 607.98C190.671 607.391 190.34 606.593 190.34 605.76C190.34 604.927 190.671 604.129 191.26 603.54C191.848 602.951 192.647 602.62 193.48 602.62H231.76C232.593 602.62 233.391 602.951 233.98 603.54C234.569 604.129 234.9 604.927 234.9 605.76C234.9 606.593 234.569 607.391 233.98 607.98C233.391 608.569 232.593 608.9 231.76 608.9Z" fill="#FAFAFA"/>
<path d="M175.72 403.34H149.72C150.46 428.54 138.96 442.78 138.96 472.44C138.96 499.12 145.48 504.12 162.74 504.12C180 504.12 186.52 499.12 186.52 472.44C186.48 442.78 174.96 428.54 175.72 403.34Z" fill="#FAFAFA"/>
<path d="M153.26 503.16H172.14V504.76C172.14 505.089 172.009 505.404 171.777 505.637C171.544 505.869 171.229 506 170.9 506H154.5C154.171 506 153.856 505.869 153.623 505.637C153.39 505.404 153.26 505.089 153.26 504.76V503.16Z" fill="#F3F7FF"/>
<path d="M134.06 412.52H132.06V450.78H134.06V412.52Z" fill="#E0E0E0"/>
<path d="M204.02 424.56H121.36L135.54 339.84H189.86L204.02 424.56Z" fill="#EBEBEB"/>
<path d="M500 745.12C714.165 745.12 887.78 734.984 887.78 722.48C887.78 709.976 714.165 699.84 500 699.84C285.835 699.84 112.22 709.976 112.22 722.48C112.22 734.984 285.835 745.12 500 745.12Z" fill="#F5F5F5"/>
<path d="M484.7 663.24C482.82 597.98 480.42 283.96 484.18 251.24L491.68 243.06C491.68 243.06 491.5 252.44 491.32 277.42C490.54 389.22 487.64 646.56 488.28 663.18L484.7 663.24Z" fill="#1F3A74"/>
<path opacity="0.6" d="M484.7 663.24C482.82 597.98 480.42 283.96 484.18 251.24L491.68 243.06C491.68 243.06 491.5 252.44 491.32 277.42C490.54 389.22 487.64 646.56 488.28 663.18L484.7 663.24Z" fill="white"/>
<path d="M515.32 477.6C533.76 459.18 554.995 443.79 578.24 432C595.5 423.56 550.24 478.68 532.52 499.22C514.8 519.76 493 542.46 486 561.64C484.6 522.56 493.48 499.34 515.32 477.6Z" fill="#1F3A74"/>
<path opacity="0.6" d="M515.32 477.6C533.76 459.18 554.995 443.79 578.24 432C595.5 423.56 550.24 478.68 532.52 499.22C514.8 519.76 493 542.46 486 561.64C484.6 522.56 493.48 499.34 515.32 477.6Z" fill="white"/>
<path d="M485.82 310.78C472.34 251.3 476.5 217.1 491.68 180.44C505.88 146.16 516.96 130.84 533.46 117.86C537.72 114.52 528.14 162.44 513.46 198.16C503.1 223.36 497.96 256.16 490.8 275.04C485.82 288 485.82 310.78 485.82 310.78Z" fill="#1F3A74"/>
<path opacity="0.6" d="M485.82 310.78C472.34 251.3 476.5 217.1 491.68 180.44C505.88 146.16 516.96 130.84 533.46 117.86C537.72 114.52 528.14 162.44 513.46 198.16C503.1 223.36 497.96 256.16 490.8 275.04C485.82 288 485.82 310.78 485.82 310.78Z" fill="white"/>
<path d="M486.54 441.12C485.06 405.52 483.28 371.12 510.34 325.9C516.92 314.88 575.14 221.9 595.24 216.3C605.1 213.58 587.58 285.52 560.66 328.46C540.46 360.64 531.14 369.16 509.04 406.72C500.34 421.52 486.54 441.12 486.54 441.12Z" fill="#1F3A74"/>
<path opacity="0.6" d="M486.54 441.12C485.06 405.52 483.28 371.12 510.34 325.9C516.92 314.88 575.14 221.9 595.24 216.3C605.1 213.58 587.58 285.52 560.66 328.46C540.46 360.64 531.14 369.16 509.04 406.72C500.34 421.52 486.54 441.12 486.54 441.12Z" fill="white"/>
<path d="M451.78 294.1C428.02 271.18 404.72 256.1 387.46 248.48C370.2 240.86 415.64 297.88 437.46 322.64C459.28 347.4 479.28 368.88 487.84 390.92C485.38 343.7 475.56 317.04 451.78 294.1Z" fill="#1F3A74"/>
<path opacity="0.6" d="M451.78 294.1C428.02 271.18 404.72 256.1 387.46 248.48C370.2 240.86 415.64 297.88 437.46 322.64C459.28 347.4 479.28 368.88 487.84 390.92C485.38 343.7 475.56 317.04 451.78 294.1Z" fill="white"/>
<path d="M487.86 508.64C484 481.82 475.2 451.2 461.7 430C448.2 408.8 427.42 376.48 410.22 367.74C406.1 365.64 428.84 431.14 439.86 449.26C448.881 464.237 459.85 477.95 472.48 490.04C475.4 493.06 487.86 508.64 487.86 508.64Z" fill="#1F3A74"/>
<path opacity="0.6" d="M487.86 508.64C484 481.82 475.2 451.2 461.7 430C448.2 408.8 427.42 376.48 410.22 367.74C406.1 365.64 428.84 431.14 439.86 449.26C448.881 464.237 459.85 477.95 472.48 490.04C475.4 493.06 487.86 508.64 487.86 508.64Z" fill="white"/>
<path d="M516.76 680.16H456.28L451.72 615H521.32L516.76 680.16Z" fill="#1F3A74"/>
<path d="M525.82 625.98H447.22L444.96 609H528.08L525.82 625.98Z" fill="#1F3A74"/>
<g opacity="0.4">
<path d="M516.761 680.16H456.281L451.721 615H521.321L516.761 680.16Z" fill="black"/>
<path d="M525.82 625.98H447.22L444.96 609H528.08L525.82 625.98Z" fill="black"/>
</g>
<path d="M582.16 436.64C563.56 439.98 502.88 402.22 482.34 377.36C497.084 364.607 510.584 350.484 522.66 335.18C509.34 350.44 487.94 363.98 475.24 371.18C469.5 366.22 466.14 363.18 466.14 363.18C466.14 363.18 518.14 345.76 545.78 284.5C566.84 237.88 597.44 212.86 629.78 236.82C692.66 252.22 626 417.46 582.16 436.64Z" fill="#263238"/>
<path d="M600.9 336C600.4 336.74 600.1 337.18 599.7 337.7L598.6 339.18C597.84 340.14 597.08 341.04 596.3 341.94C594.72 343.74 593.12 345.46 591.44 347.1C588.054 350.355 584.446 353.369 580.64 356.12C576.819 358.831 572.809 361.264 568.64 363.4C566.52 364.42 564.42 365.4 562.24 366.3L558.98 367.58L558.12 367.92C557.6 368.08 557.16 368.24 556.58 368.38C555.274 368.713 553.921 368.815 552.58 368.68C550.926 368.507 549.336 367.945 547.94 367.04C546.763 366.233 545.751 365.208 544.96 364.02C543.935 362.432 543.209 360.67 542.82 358.82C542.271 356.19 542.036 353.505 542.12 350.82C542.267 346.194 542.775 341.587 543.64 337.04C544.46 332.62 545.42 328.3 546.5 324.02C547.58 319.74 548.82 315.54 550.28 311.3L557.78 313.12C557.24 317.32 556.64 321.58 556.24 325.82C555.84 330.06 555.34 334.26 555.1 338.44C554.818 342.468 554.785 346.509 555 350.54C555.075 352.199 555.344 353.843 555.8 355.44C555.98 356.02 556.24 356.4 556.16 356.18C555.992 355.884 555.751 355.637 555.46 355.46C554.987 355.122 554.437 354.909 553.86 354.84C553.595 354.799 553.325 354.799 553.06 354.84L553.7 354.54L556.38 353.24C558.18 352.38 559.9 351.38 561.64 350.44C565.056 348.413 568.361 346.203 571.54 343.82C574.672 341.386 577.645 338.754 580.44 335.94C581.86 334.58 583.2 333.14 584.44 331.68C585.06 330.94 585.7 330.2 586.28 329.46L587.16 328.36L587.88 327.44L600.9 336Z" fill="#E4897B"/>
<path d="M557.1 314.96L563.56 303.38L547.68 304.34C547.68 304.34 546.68 311.86 551.04 316.46L557.1 314.96Z" fill="#E4897B"/>
<path d="M605 316.78C589.32 317.4 577.4 332.3 577.4 332.3L597.4 357.5C597.4 357.5 612.4 342.38 613.76 334.08C615.22 325.42 614.44 316.4 605 316.78Z" fill="#1F3A74"/>
<path opacity="0.3" d="M605 316.78C589.32 317.4 577.4 332.3 577.4 332.3L597.4 357.5C597.4 357.5 612.4 342.38 613.76 334.08C615.22 325.42 614.44 316.4 605 316.78Z" fill="black"/>
<path d="M560.6 296.42L548.96 299.32L547.68 304.34L563.56 303.38L560.6 296.42Z" fill="#E4897B"/>
<path d="M559.5 282.5L561.56 283.58L560.62 298.16L556.02 298.48L559.5 282.5Z" fill="#E4897B"/>
<path d="M556 281.94L553.98 282.42L552.06 299.9L556.6 298.74L556 281.94Z" fill="#E4897B"/>
<path d="M590.46 321.52C590.46 321.52 584.32 326.14 625.1 406.92L684 388.26C675.42 364.6 670.7 349.8 666.6 296.94C657.833 297.851 649.144 299.395 640.6 301.56C631.483 303.729 622.533 306.55 613.82 310C602.66 314.72 590.46 321.52 590.46 321.52Z" fill="#1F3A74"/>
<path opacity="0.3" d="M590.46 321.52C590.46 321.52 584.32 326.14 625.1 406.92L684 388.26C675.42 364.6 670.7 349.8 666.6 296.94C657.833 297.851 649.144 299.395 640.6 301.56C631.483 303.729 622.533 306.55 613.82 310C602.66 314.72 590.46 321.52 590.46 321.52Z" fill="black"/>
<path d="M728.18 705.86L713.48 707.28L698.18 672.28L712.88 670.86L728.18 705.86Z" fill="#E4897B"/>
<path d="M698.18 672.3L706.06 690.34H721.4L712.9 670.86L698.18 672.3Z" fill="#CE6F64"/>
<path d="M860.82 633.62L852.44 646.34L820.32 631L828.72 618.3L860.82 633.62Z" fill="#E4897B"/>
<path d="M828.72 618.3L820.34 631L836.9 638.9L845.28 626.2L828.72 618.3Z" fill="#CE6F64"/>
<path d="M625.1 406.92C625.1 406.92 622.14 528.38 637.1 572.34C652.64 618.06 698.42 685.1 698.42 685.1L726.96 683.72C726.96 683.72 685.8 599.48 681.16 563.1C674.8 512.94 668.28 393.26 668.28 393.26L625.1 406.92Z" fill="#1F3A74"/>
<path opacity="0.6" d="M625.1 406.92C625.1 406.92 622.14 528.38 637.1 572.34C652.64 618.06 698.42 685.1 698.42 685.1L726.96 683.72C726.96 683.72 685.8 599.48 681.16 563.1C674.8 512.94 668.28 393.26 668.28 393.26L625.1 406.92Z" fill="black"/>
<path opacity="0.3" d="M673.16 471.48L652.16 423.48C652.16 423.48 654.58 478.82 674.72 493.06C674.18 485.86 673.66 478.6 673.16 471.48Z" fill="black"/>
<path d="M640.68 402C640.68 402 680.68 498.94 707.12 552.32C728.52 595.42 830.72 639.7 830.72 639.7L841.44 621.7C841.44 621.7 763.26 572.1 748.48 542.86C701.18 449.28 711.26 408.6 684.06 388.26L640.68 402Z" fill="#1F3A74"/>
<path opacity="0.6" d="M640.68 402C640.68 402 680.68 498.94 707.12 552.32C728.52 595.42 830.72 639.7 830.72 639.7L841.44 621.7C841.44 621.7 763.26 572.1 748.48 542.86C701.18 449.28 711.26 408.6 684.06 388.26L640.68 402Z" fill="black"/>
<path d="M848.9 644.96L850 628C850.018 627.705 850.141 627.426 850.346 627.213C850.551 627 850.826 626.868 851.12 626.84L864.76 625.78C865.103 625.765 865.445 625.823 865.764 625.949C866.083 626.075 866.371 626.267 866.611 626.513C866.851 626.758 867.036 627.051 867.155 627.373C867.273 627.695 867.323 628.038 867.3 628.38C866.8 634.38 866.28 637.18 865.78 644.68C865.5 649.3 865.52 659.56 865.1 665.92C864.68 672.28 858.36 672.24 857.96 669.54C856.16 657.54 852.78 651.88 849.68 647.66C849.102 646.884 848.825 645.925 848.9 644.96Z" fill="#263238"/>
<path d="M711.52 702.74H729.52C729.847 702.744 730.163 702.854 730.422 703.052C730.681 703.25 730.87 703.526 730.96 703.84L734.96 718.12C735.062 718.458 735.082 718.815 735.019 719.162C734.955 719.509 734.81 719.835 734.595 720.115C734.379 720.394 734.101 720.619 733.782 720.769C733.463 720.92 733.113 720.992 732.76 720.98C726.44 720.88 723.36 720.52 715.42 720.52C710.54 720.52 697.9 721.02 691.16 721.02C684.42 721.02 683.16 714.34 685.92 713.74C698.16 711.04 705.22 707.3 708.98 703.74C709.671 703.099 710.578 702.741 711.52 702.74Z" fill="#263238"/>
<path d="M628.4 272.26C629.44 281.42 632.74 297.72 640.58 301.56C640.58 301.56 641 311.04 625 316.12C607.4 321.68 613.82 310.12 613.82 310.12C622.7 304.78 620.2 297.74 616.4 291.58L628.4 272.26Z" fill="#E4897B"/>
<path d="M598.62 317.2C602.98 314.96 608.52 312.26 613.82 310.04C622.527 306.58 631.47 303.746 640.58 301.56C645.74 300.2 650.94 299.18 655.32 298.48C656.26 301.38 659.32 322.32 628.04 330.06C600.64 336.86 597.18 321.72 598.62 317.2Z" fill="#E4897B"/>
<path d="M612.68 310.62C612.414 310.619 612.158 310.519 611.96 310.34C611.778 310.145 611.678 309.887 611.68 309.62C611.679 309.359 611.779 309.108 611.96 308.92C612.153 308.74 612.407 308.64 612.67 308.64C612.934 308.64 613.188 308.74 613.38 308.92C613.567 309.106 613.674 309.357 613.68 309.62C613.675 309.889 613.568 310.147 613.38 310.34C613.192 310.521 612.941 310.622 612.68 310.62Z" fill="#F0F0F0"/>
<path d="M619.6 322.56C619.333 322.53 619.088 322.395 618.92 322.185C618.751 321.976 618.672 321.708 618.7 321.44C618.73 321.178 618.863 320.938 619.069 320.773C619.275 320.609 619.538 320.532 619.8 320.56C619.932 320.573 620.06 320.611 620.176 320.673C620.293 320.735 620.396 320.82 620.48 320.922C620.563 321.025 620.626 321.142 620.664 321.269C620.702 321.396 620.714 321.529 620.7 321.66C620.671 321.906 620.554 322.133 620.37 322.298C620.186 322.464 619.948 322.557 619.7 322.56H619.6ZM622.7 321.6C622.672 321.335 622.748 321.07 622.912 320.861C623.077 320.652 623.316 320.515 623.58 320.48C623.843 320.452 624.105 320.529 624.312 320.693C624.518 320.858 624.65 321.098 624.68 321.36C624.7 321.492 624.692 321.626 624.658 321.755C624.624 321.884 624.564 322.005 624.482 322.11C624.399 322.214 624.296 322.301 624.179 322.365C624.062 322.429 623.933 322.468 623.8 322.48C623.539 322.503 623.279 322.424 623.074 322.26C622.869 322.097 622.735 321.86 622.7 321.6ZM626.7 321C626.633 320.745 626.668 320.475 626.8 320.246C626.931 320.018 627.146 319.85 627.4 319.78C627.528 319.744 627.661 319.734 627.792 319.751C627.924 319.769 628.05 319.812 628.164 319.879C628.278 319.947 628.377 320.036 628.456 320.143C628.534 320.25 628.59 320.371 628.62 320.5C628.688 320.755 628.652 321.026 628.521 321.254C628.39 321.482 628.174 321.65 627.92 321.72H627.66C627.437 321.729 627.217 321.663 627.036 321.532C626.855 321.402 626.723 321.214 626.66 321H626.7ZM615.44 321.24C615.326 321.176 615.226 321.089 615.145 320.986C615.065 320.882 615.006 320.763 614.972 320.636C614.939 320.509 614.931 320.377 614.95 320.247C614.968 320.117 615.013 319.992 615.08 319.88C615.218 319.652 615.439 319.486 615.697 319.419C615.955 319.351 616.229 319.388 616.46 319.52C616.574 319.588 616.673 319.678 616.751 319.784C616.83 319.89 616.886 320.011 616.918 320.139C616.95 320.267 616.956 320.401 616.935 320.531C616.915 320.662 616.869 320.787 616.8 320.9C616.712 321.049 616.586 321.172 616.435 321.256C616.284 321.34 616.113 321.383 615.94 321.38C615.75 321.389 615.562 321.34 615.4 321.24H615.44ZM630.52 319.84C630.467 319.719 630.439 319.589 630.436 319.457C630.434 319.326 630.457 319.195 630.506 319.072C630.554 318.949 630.626 318.837 630.718 318.743C630.81 318.648 630.919 318.572 631.04 318.52C631.161 318.467 631.291 318.439 631.423 318.436C631.555 318.434 631.686 318.457 631.808 318.505C631.931 318.554 632.043 318.626 632.138 318.718C632.232 318.809 632.308 318.919 632.36 319.04C632.462 319.285 632.464 319.559 632.367 319.805C632.27 320.052 632.081 320.251 631.84 320.36C631.709 320.39 631.572 320.39 631.44 320.36C631.247 320.376 631.053 320.335 630.883 320.243C630.713 320.15 630.573 320.01 630.48 319.84H630.52ZM634 318C633.925 317.891 633.871 317.769 633.843 317.639C633.815 317.51 633.813 317.376 633.837 317.246C633.862 317.115 633.912 316.991 633.984 316.88C634.057 316.77 634.151 316.674 634.26 316.6C634.478 316.453 634.745 316.398 635.004 316.447C635.262 316.496 635.491 316.644 635.64 316.86C635.716 316.966 635.771 317.086 635.8 317.213C635.829 317.34 635.833 317.472 635.81 317.601C635.788 317.729 635.74 317.852 635.67 317.962C635.599 318.071 635.508 318.166 635.4 318.24C635.229 318.356 635.027 318.419 634.82 318.42C634.66 318.423 634.501 318.386 634.358 318.312C634.215 318.239 634.092 318.132 634 318ZM612.36 318C612.303 317.881 612.27 317.751 612.263 317.619C612.256 317.487 612.276 317.354 612.32 317.23C612.365 317.105 612.434 316.991 612.523 316.893C612.612 316.795 612.72 316.716 612.84 316.66C612.957 316.602 613.084 316.569 613.214 316.561C613.344 316.553 613.474 316.571 613.597 316.613C613.72 316.656 613.833 316.723 613.929 316.81C614.026 316.897 614.105 317.002 614.16 317.12C614.218 317.238 614.252 317.367 614.261 317.498C614.269 317.629 614.251 317.761 614.209 317.886C614.166 318.01 614.099 318.125 614.012 318.223C613.924 318.322 613.819 318.402 613.7 318.46C613.568 318.521 613.426 318.555 613.28 318.56C613.089 318.564 612.901 318.514 612.738 318.414C612.575 318.315 612.444 318.171 612.36 318ZM637.22 315.68C637.127 315.589 637.053 315.48 637.003 315.36C636.952 315.239 636.926 315.11 636.926 314.98C636.926 314.85 636.952 314.721 637.003 314.6C637.053 314.48 637.127 314.371 637.22 314.28C637.31 314.184 637.418 314.108 637.539 314.056C637.659 314.004 637.789 313.977 637.92 313.977C638.051 313.977 638.181 314.004 638.302 314.056C638.422 314.108 638.53 314.184 638.62 314.28C638.714 314.373 638.788 314.484 638.839 314.605C638.89 314.727 638.916 314.858 638.916 314.99C638.916 315.122 638.89 315.253 638.839 315.375C638.788 315.496 638.714 315.607 638.62 315.7C638.526 315.802 638.411 315.883 638.284 315.938C638.157 315.993 638.019 316.021 637.88 316.02C637.748 315.997 637.622 315.948 637.508 315.876C637.395 315.804 637.297 315.71 637.22 315.6V315.68ZM611.34 313.68C611.332 313.549 611.35 313.417 611.393 313.293C611.436 313.168 611.503 313.053 611.59 312.955C611.677 312.856 611.783 312.776 611.902 312.719C612.02 312.661 612.149 312.628 612.28 312.62C612.548 312.609 612.808 312.704 613.007 312.883C613.205 313.063 613.325 313.313 613.34 313.58C613.346 313.711 613.325 313.843 613.28 313.966C613.234 314.089 613.165 314.202 613.076 314.299C612.987 314.396 612.879 314.474 612.76 314.529C612.641 314.584 612.512 314.615 612.38 314.62C612.249 314.625 612.118 314.605 611.994 314.559C611.871 314.514 611.758 314.445 611.661 314.356C611.565 314.267 611.487 314.159 611.431 314.04C611.376 313.92 611.345 313.791 611.34 313.66V313.68ZM639.8 312.56C639.687 312.492 639.588 312.403 639.509 312.296C639.431 312.19 639.374 312.069 639.342 311.941C639.311 311.813 639.305 311.679 639.325 311.549C639.345 311.418 639.391 311.293 639.46 311.18C639.604 310.958 639.828 310.801 640.086 310.741C640.343 310.682 640.614 310.724 640.84 310.86C641.065 311.001 641.227 311.223 641.29 311.481C641.354 311.739 641.314 312.011 641.18 312.24C641.088 312.385 640.961 312.505 640.811 312.588C640.661 312.672 640.492 312.717 640.32 312.72C640.134 312.71 639.953 312.648 639.8 312.54V312.56ZM641.8 309.04C641.677 308.996 641.564 308.927 641.468 308.838C641.371 308.749 641.294 308.642 641.24 308.523C641.186 308.403 641.156 308.274 641.153 308.143C641.149 308.012 641.172 307.882 641.22 307.76C641.265 307.637 641.333 307.524 641.422 307.427C641.511 307.331 641.618 307.254 641.738 307.2C641.857 307.146 641.986 307.116 642.117 307.113C642.248 307.109 642.378 307.132 642.5 307.18C642.624 307.227 642.738 307.297 642.834 307.388C642.931 307.479 643.008 307.588 643.062 307.709C643.116 307.83 643.145 307.96 643.149 308.093C643.152 308.225 643.128 308.357 643.08 308.48C643.01 308.671 642.881 308.836 642.713 308.95C642.544 309.065 642.344 309.124 642.14 309.12C641.994 309.128 641.848 309.093 641.72 309.02L641.8 309.04ZM643.06 305.26C642.801 305.198 642.576 305.039 642.431 304.816C642.286 304.592 642.232 304.322 642.28 304.06C642.309 303.931 642.362 303.809 642.438 303.701C642.514 303.593 642.61 303.501 642.722 303.43C642.833 303.359 642.958 303.311 643.088 303.289C643.218 303.267 643.352 303.271 643.48 303.3C643.608 303.326 643.73 303.378 643.838 303.451C643.946 303.525 644.038 303.62 644.109 303.73C644.18 303.84 644.228 303.963 644.251 304.092C644.273 304.221 644.27 304.353 644.24 304.48C644.191 304.704 644.067 304.905 643.889 305.05C643.711 305.196 643.49 305.276 643.26 305.28H643.06V305.26Z" fill="#F0F0F0"/>
<path d="M643.78 301.22C643.647 301.226 643.515 301.204 643.391 301.155C643.267 301.107 643.154 301.034 643.06 300.94C642.966 300.846 642.893 300.733 642.845 300.609C642.796 300.485 642.775 300.353 642.78 300.22C642.779 299.959 642.879 299.708 643.06 299.52C643.153 299.429 643.262 299.354 643.38 299.3C643.566 299.23 643.767 299.214 643.962 299.253C644.156 299.291 644.336 299.384 644.48 299.52C644.667 299.706 644.774 299.957 644.78 300.22C644.771 300.489 644.665 300.745 644.48 300.94C644.386 301.025 644.278 301.093 644.16 301.14C644.041 301.193 643.911 301.221 643.78 301.22Z" fill="#F0F0F0"/>
<path d="M623.5 280.12L616.4 291.48C617.317 292.905 618.1 294.411 618.74 295.98C622.24 294.28 626.74 289.26 625.9 285.28C625.415 283.43 624.602 281.683 623.5 280.12Z" fill="#CE6F64"/>
<path d="M624.24 252C629.26 266.24 631.7 272.16 627.7 282.26C621.7 297.44 603.1 300.52 593.92 288.06C585.66 276.86 578.82 255.44 590.06 244.16C592.527 241.657 595.594 239.826 598.968 238.843C602.343 237.859 605.912 237.755 609.338 238.541C612.764 239.327 615.932 240.976 618.54 243.332C621.149 245.688 623.111 248.672 624.24 252Z" fill="#E4897B"/>
<path d="M603.48 236.84C600.34 241.68 613.12 269.68 631.86 264.1C641.24 261.3 638.08 255.04 632.56 249.48C625.903 242.884 617.257 238.667 607.96 237.48L603.48 236.84Z" fill="#263238"/>
<path d="M604.2 237.64C598.68 237.1 580.34 240.48 581.14 259.12C581.14 259.12 588.76 252.28 610 251.12L604.2 237.64Z" fill="#263238"/>
<path d="M631.7 263.5C632.12 264.887 632.262 266.342 632.118 267.784C631.974 269.225 631.547 270.624 630.86 271.9C629.02 275.3 625.32 274.3 623.52 271.12C621.9 268.24 620.92 263 623.88 260.66C624.542 260.167 625.315 259.846 626.131 259.726C626.947 259.606 627.78 259.691 628.556 259.973C629.331 260.254 630.024 260.724 630.573 261.34C631.122 261.955 631.509 262.698 631.7 263.5Z" fill="#E4897B"/>
<path d="M683.84 384.52L688.16 388.96C688.5 389.3 688.16 389.88 687.48 390.1L625.66 409.66C625.12 409.82 624.6 409.66 624.46 409.38L622.26 404.26C622.1 403.92 622.48 403.46 623.06 403.28L682.74 384.4C682.918 384.323 683.113 384.294 683.306 384.315C683.499 384.336 683.683 384.406 683.84 384.52Z" fill="#1F3A74"/>
<path d="M604.82 264.7C605.3 265.84 605.08 267 604.36 267.32C603.64 267.64 602.62 266.96 602.14 265.84C601.66 264.72 601.88 263.54 602.62 263.22C603.36 262.9 604.34 263.56 604.82 264.7Z" fill="#263238"/>
<path d="M592 270.12C592.48 271.24 592.28 272.42 591.54 272.74C590.8 273.06 589.8 272.38 589.32 271.26C588.84 270.14 589.06 268.96 589.8 268.64C590.54 268.32 591.56 268.98 592 270.12Z" fill="#263238"/>
<path d="M590.2 268.56L587.14 268.94C587.14 268.94 589.44 270.46 590.2 268.56Z" fill="#263238"/>
<path d="M596.24 270.62C596.324 273.63 596.001 276.637 595.28 279.56C596.03 279.728 596.807 279.729 597.557 279.563C598.307 279.397 599.011 279.068 599.62 278.6L596.24 270.62Z" fill="#DE5753"/>
<path d="M605.34 281.4C605.271 281.4 605.203 281.38 605.146 281.34C605.088 281.301 605.045 281.245 605.02 281.18C605 281.137 604.989 281.09 604.987 281.042C604.985 280.995 604.993 280.947 605.01 280.902C605.026 280.858 605.052 280.817 605.085 280.782C605.117 280.747 605.157 280.719 605.2 280.7C606.622 280.137 607.89 279.245 608.902 278.098C609.913 276.951 610.639 275.581 611.02 274.1C611.027 274.053 611.044 274.008 611.069 273.968C611.095 273.927 611.128 273.893 611.168 273.867C611.208 273.84 611.252 273.822 611.299 273.814C611.346 273.806 611.394 273.808 611.44 273.82C611.488 273.827 611.533 273.844 611.574 273.869C611.615 273.894 611.651 273.927 611.679 273.967C611.707 274.006 611.727 274.05 611.737 274.097C611.748 274.144 611.749 274.193 611.74 274.24C611.337 275.839 610.559 277.318 609.47 278.556C608.382 279.795 607.014 280.756 605.48 281.36L605.34 281.4Z" fill="#263238"/>
<path d="M606.64 259C606.513 259.004 606.387 258.97 606.28 258.9C605.511 258.426 604.639 258.143 603.738 258.073C602.837 258.003 601.933 258.15 601.1 258.5C601.015 258.543 600.922 258.569 600.826 258.577C600.731 258.584 600.635 258.573 600.544 258.543C600.453 258.513 600.368 258.466 600.296 258.404C600.223 258.341 600.163 258.265 600.12 258.18C600.077 258.095 600.051 258.002 600.043 257.906C600.036 257.811 600.047 257.715 600.077 257.624C600.107 257.533 600.154 257.448 600.216 257.376C600.279 257.303 600.355 257.243 600.44 257.2C601.49 256.745 602.634 256.55 603.776 256.63C604.918 256.71 606.023 257.063 607 257.66C607.164 257.756 607.283 257.913 607.332 258.096C607.38 258.28 607.355 258.475 607.26 258.64C607.202 258.753 607.113 258.848 607.003 258.912C606.893 258.975 606.767 259.006 606.64 259Z" fill="#263238"/>
<path d="M583.46 266.74H583.34C583.247 266.723 583.158 266.688 583.078 266.637C582.998 266.585 582.929 266.519 582.876 266.441C582.822 266.363 582.784 266.275 582.764 266.182C582.744 266.089 582.743 265.993 582.76 265.9C582.951 264.762 583.414 263.688 584.111 262.768C584.807 261.849 585.716 261.112 586.76 260.62C586.848 260.573 586.945 260.544 587.045 260.536C587.145 260.529 587.245 260.542 587.34 260.575C587.434 260.608 587.521 260.661 587.594 260.729C587.667 260.798 587.725 260.881 587.764 260.973C587.803 261.065 587.823 261.165 587.821 261.265C587.82 261.365 587.797 261.464 587.756 261.555C587.714 261.646 587.653 261.727 587.579 261.793C587.504 261.86 587.416 261.91 587.32 261.94C586.512 262.351 585.814 262.948 585.282 263.681C584.749 264.415 584.399 265.265 584.26 266.16C584.222 266.338 584.119 266.496 583.971 266.603C583.823 266.71 583.642 266.759 583.46 266.74Z" fill="#263238"/>
<path d="M678 310.56C679.44 312.26 681.2 314.18 682.84 316C684.48 317.82 686.26 319.62 688.02 321.38C691.52 324.94 695.12 328.4 698.9 331.62C702.68 334.84 706.5 337.98 710.5 340.78C711.48 341.52 712.5 342.14 713.54 342.78C714.58 343.42 715.54 344.12 716.6 344.78C717.66 345.44 718.74 346.08 719.68 346.58L720.96 347.24L722.36 347.8C724.38 348.532 726.462 349.081 728.58 349.44C730.865 349.795 733.169 350.016 735.48 350.1C740.353 350.211 745.226 349.957 750.06 349.34C755.055 348.75 760.016 347.895 764.92 346.78C769.86 345.76 774.92 344.42 779.64 343.04L782.5 350.2C777.637 352.463 772.656 354.466 767.58 356.2C762.467 357.931 757.267 359.393 752 360.58C746.59 361.809 741.082 362.565 735.54 362.84C729.583 363.172 723.612 362.496 717.88 360.84L715.62 360.04L713.38 359.04C711.98 358.38 710.86 357.74 709.6 357.04C708.34 356.34 707.14 355.72 705.96 355.04C704.78 354.36 703.54 353.66 702.4 352.9C697.761 349.977 693.306 346.771 689.06 343.3C684.84 339.86 680.8 336.22 676.94 332.42C675.02 330.5 673.14 328.54 671.3 326.54C669.44 324.54 667.72 322.54 665.86 320.24L678 310.56Z" fill="#E4897B"/>
<path d="M848.88 653.72C848.687 653.738 848.493 653.738 848.3 653.72C848.084 653.691 847.879 653.604 847.71 653.466C847.54 653.328 847.412 653.146 847.34 652.94C846.64 651.12 849.92 646.7 850.3 646.2C850.342 646.146 850.398 646.106 850.462 646.085C850.526 646.064 850.595 646.062 850.66 646.08C850.73 646.092 850.795 646.125 850.845 646.175C850.895 646.225 850.929 646.29 850.94 646.36C851.28 648.36 851.64 651.92 850.24 653.26C850.055 653.423 849.84 653.548 849.606 653.626C849.373 653.705 849.126 653.737 848.88 653.72ZM850.36 647.28C849.1 649.08 847.64 651.66 848 652.62C848 652.74 848.14 652.88 848.44 652.94C848.663 653.008 848.899 653.019 849.127 652.97C849.355 652.921 849.566 652.814 849.74 652.66C850.5 652 850.72 650 850.36 647.28Z" fill="#1F3A74"/>
<path d="M845.26 650C845.114 650.021 844.966 650.021 844.82 650C844.546 649.92 844.306 649.75 844.14 649.518C843.973 649.287 843.889 649.005 843.9 648.72C843.878 648.443 843.919 648.164 844.02 647.904C844.12 647.644 844.277 647.411 844.48 647.22C846.04 645.68 850.48 645.94 850.6 645.94C850.662 645.949 850.721 645.972 850.773 646.006C850.825 646.041 850.868 646.087 850.9 646.14C850.934 646.194 850.952 646.256 850.952 646.32C850.952 646.384 850.934 646.446 850.9 646.5C849.497 648.302 847.497 649.543 845.26 650ZM849.74 646.6C848.078 646.461 846.413 646.846 844.98 647.7C844.856 647.821 844.759 647.968 844.697 648.13C844.635 648.293 844.609 648.467 844.62 648.64C844.62 649.1 844.84 649.22 845 649.26C846.04 649.54 848.62 647.98 849.86 646.6H849.74Z" fill="#1F3A74"/>
<path d="M703.52 705.72C702.288 705.809 701.059 705.516 700 704.88C699.721 704.682 699.493 704.422 699.333 704.12C699.173 703.818 699.086 703.482 699.08 703.14C699.055 702.952 699.083 702.761 699.161 702.587C699.238 702.414 699.363 702.266 699.52 702.16C701.18 701.06 707.32 703.84 708.54 704.42C708.608 704.45 708.665 704.501 708.701 704.566C708.737 704.631 708.751 704.706 708.74 704.78C708.731 704.855 708.699 704.926 708.649 704.983C708.599 705.04 708.534 705.081 708.46 705.1C706.84 705.48 705.184 705.688 703.52 705.72ZM700.64 702.6C700.397 702.587 700.154 702.642 699.94 702.76C699.885 702.795 699.842 702.847 699.817 702.908C699.791 702.969 699.786 703.036 699.8 703.1C699.799 703.335 699.855 703.567 699.963 703.776C700.071 703.985 700.228 704.165 700.42 704.3C701.84 705.38 705.24 704.98 707.2 704.62C705.133 703.608 702.919 702.926 700.64 702.6Z" fill="#1F3A74"/>
<path d="M708.38 705.1H708.24C706.24 704.26 702.1 700.98 702.24 699.26C702.24 698.9 702.54 698.42 703.48 698.32C707.06 697.86 708.58 704.32 708.66 704.68C708.672 704.734 708.672 704.789 708.66 704.842C708.647 704.896 708.623 704.946 708.588 704.988C708.553 705.031 708.509 705.065 708.459 705.087C708.41 705.11 708.355 705.121 708.3 705.12L708.38 705.1ZM703.88 699H703.64C703.26 699 703.06 699.14 703.04 699.32C702.9 700.32 705.74 702.92 707.82 704.06C707.34 702.5 706 699 703.88 699Z" fill="#1F3A74"/>
<path d="M783.34 340.22L779.02 329.54L771.78 343.22C771.78 343.22 776.22 350.76 782.52 350.2L783.5 347.42C784.319 345.08 784.262 342.522 783.34 340.22Z" fill="#E4897B"/>
<path d="M602.96 263.14L599.92 263.52C599.92 263.52 602.22 265.04 602.96 263.14Z" fill="#263238"/>
<path d="M728.98 684.56L694.92 686.36L690 676.92L726.96 675.7L728.98 684.56Z" fill="#1F3A74"/>
<path opacity="0.7" d="M728.98 684.56L694.92 686.36L690 676.92L726.96 675.7L728.98 684.56Z" fill="white"/>
<path d="M843.9 619.34L830.16 641.88L822.92 640.38L835.8 613.92L843.9 619.34Z" fill="#1F3A74"/>
<path opacity="0.7" d="M843.9 619.34L830.16 641.88L822.92 640.38L835.8 613.92L843.9 619.34Z" fill="white"/>
<path d="M678 393.74L679.6 393.24C679.92 393.14 680.1 392.9 680.02 392.7L677.04 386C677.04 385.8 676.62 385.74 676.3 385.84L674.7 386.34C674.38 386.34 674.2 386.68 674.28 386.88L677.2 393.5C677.28 393.76 677.62 393.84 678 393.74Z" fill="#1F3A74"/>
<path d="M630.32 408.8L631.92 408.3C632.24 408.3 632.44 407.96 632.36 407.76L629.44 401.14C629.34 400.94 629.02 400.88 628.7 400.98L627.1 401.48C626.78 401.48 626.6 401.82 626.68 402.02L629.6 408.64C629.68 408.82 630 408.9 630.32 408.8Z" fill="#1F3A74"/>
<path d="M654.14 401.28L655.74 400.76C656.04 400.76 656.24 400.42 656.16 400.22L653.24 393.62C653.24 393.42 652.82 393.34 652.5 393.44L650.9 393.94C650.58 394.04 650.4 394.3 650.48 394.48L653.4 401.1C653.48 401.3 653.82 401.38 654.14 401.28Z" fill="#1F3A74"/>
<path opacity="0.6" d="M678 393.74L679.6 393.24C679.92 393.14 680.1 392.9 680.02 392.7L677.04 386C677.04 385.8 676.62 385.74 676.3 385.84L674.7 386.34C674.38 386.34 674.2 386.68 674.28 386.88L677.2 393.5C677.28 393.76 677.62 393.84 678 393.74Z" fill="black"/>
<path opacity="0.6" d="M630.32 408.8L631.92 408.3C632.24 408.3 632.44 407.96 632.36 407.76L629.44 401.14C629.34 400.94 629.02 400.88 628.7 400.98L627.1 401.48C626.78 401.48 626.6 401.82 626.68 402.02L629.6 408.64C629.68 408.82 630 408.9 630.32 408.8Z" fill="black"/>
<path opacity="0.6" d="M654.14 401.28L655.74 400.76C656.04 400.76 656.24 400.42 656.16 400.22L653.24 393.62C653.24 393.42 652.82 393.34 652.5 393.44L650.9 393.94C650.58 394.04 650.4 394.3 650.48 394.48L653.4 401.1C653.48 401.3 653.82 401.38 654.14 401.28Z" fill="black"/>
<path d="M666.66 296.94C673.12 296.94 686.66 314.94 686.66 314.94L668.92 338.58C668.92 338.58 657.6 323.82 657.66 315.4C657.74 306.66 659.26 297.02 666.66 296.94Z" fill="#1F3A74"/>
<path opacity="0.3" d="M666.66 296.94C673.12 296.94 686.66 314.94 686.66 314.94L668.92 338.58C668.92 338.58 657.6 323.82 657.66 315.4C657.74 306.66 659.26 297.02 666.66 296.94Z" fill="black"/>
<path d="M773.08 328.98L772.92 339.74C772.921 340.234 773.075 340.716 773.36 341.12L777.26 346.58L779.02 329.54L777.02 327.44C776.701 327.128 776.298 326.914 775.86 326.825C775.423 326.735 774.968 326.774 774.552 326.937C774.136 327.1 773.776 327.379 773.515 327.741C773.254 328.104 773.103 328.534 773.08 328.98Z" fill="#E4897B"/>
<path d="M429.34 175.84V659.84H727.14V175.84H429.34ZM701.34 640.44H437.64V195.22H701.3L701.34 640.44Z" fill="#1F3A74"/>
<path opacity="0.6" d="M429.34 175.84V659.84H727.14V175.84H429.34ZM701.34 640.44H437.64V195.22H701.3L701.34 640.44Z" fill="white"/>
<path d="M437.64 195.22H434.86V640.44H437.64V195.22Z" fill="white"/>
<path d="M437.64 195.22H434.86V640.44H437.64V195.22Z" fill="#F0F0F0"/>
<path d="M758.36 62.54H220.86C216.225 62.5505 211.782 64.3908 208.497 67.6607C205.212 70.9305 203.351 75.3653 203.32 80V703.5C203.336 708.145 205.189 712.595 208.476 715.878C211.762 719.161 216.215 721.01 220.86 721.02H758.36C763.003 721.01 767.453 719.16 770.737 715.877C774.02 712.594 775.869 708.143 775.88 703.5V80C775.853 75.3671 773.997 70.9323 770.716 67.6619C767.434 64.3915 762.993 62.5505 758.36 62.54ZM437.64 195.22H701.3V640.44H437.64V195.22Z" fill="#1F3A74"/>
<path opacity="0.5" d="M758.36 62.54H220.86C216.225 62.5505 211.782 64.3908 208.497 67.6607C205.212 70.9305 203.351 75.3653 203.32 80V703.5C203.336 708.145 205.189 712.595 208.476 715.878C211.762 719.161 216.215 721.01 220.86 721.02H758.36C763.003 721.01 767.453 719.16 770.737 715.877C774.02 712.594 775.869 708.143 775.88 703.5V80C775.853 75.3671 773.997 70.9323 770.716 67.6619C767.434 64.3915 762.993 62.5505 758.36 62.54ZM437.64 195.22H701.3V640.44H437.64V195.22Z" fill="black"/>
<path d="M753.7 62.54H216.2C211.565 62.5505 207.122 64.3908 203.837 67.6607C200.552 70.9305 198.691 75.3653 198.66 80V703.5C198.676 708.145 200.529 712.595 203.816 715.878C207.102 719.161 211.554 721.01 216.2 721.02H753.7C758.341 721.004 762.788 719.153 766.071 715.871C769.353 712.589 771.204 708.142 771.22 703.5V80C771.188 75.3687 769.33 70.937 766.05 67.6677C762.769 64.3984 758.331 62.5557 753.7 62.54ZM437.7 195.22H701.3V640.44H437.64L437.7 195.22Z" fill="#1F3A74"/>
<path opacity="0.2" d="M753.7 62.54H216.2C211.565 62.5505 207.122 64.3908 203.837 67.6607C200.552 70.9305 198.691 75.3653 198.66 80V703.5C198.676 708.145 200.529 712.595 203.816 715.878C207.102 719.161 211.554 721.01 216.2 721.02H753.7C758.341 721.004 762.788 719.153 766.071 715.871C769.353 712.589 771.204 708.142 771.22 703.5V80C771.188 75.3687 769.33 70.937 766.05 67.6677C762.769 64.3984 758.331 62.5557 753.7 62.54ZM437.7 195.22H701.3V640.44H437.64L437.7 195.22Z" fill="black"/>
<path d="M198.66 107.86V703.5C198.676 708.145 200.529 712.595 203.816 715.878C207.102 719.161 211.554 721.01 216.2 721.02H753.7C758.341 721.004 762.788 719.153 766.071 715.871C769.353 712.589 771.204 708.142 771.22 703.5V107.86H198.66ZM437.64 195.22H701.3V640.44H437.64V195.22Z" fill="#1F3A74"/>
<path opacity="0.6" d="M198.66 107.86V703.5C198.676 708.145 200.529 712.595 203.816 715.878C207.102 719.161 211.554 721.01 216.2 721.02H753.7C758.341 721.004 762.788 719.153 766.071 715.871C769.353 712.589 771.204 708.142 771.22 703.5V107.86H198.66ZM437.64 195.22H701.3V640.44H437.64V195.22Z" fill="white"/>
<path d="M202 131.16V697.72H768V131.16H202ZM701.4 640.44H437.64V195.22H701.3L701.4 640.44Z" fill="white"/>
<path opacity="0.76" d="M732.76 94.64C737.907 94.64 742.08 90.4673 742.08 85.32C742.08 80.1727 737.907 76 732.76 76C727.613 76 723.44 80.1727 723.44 85.32C723.44 90.4673 727.613 94.64 732.76 94.64Z" fill="#1F3A74"/>
<path opacity="0.76" d="M699.74 94.64C704.887 94.64 709.06 90.4673 709.06 85.32C709.06 80.1727 704.887 76 699.74 76C694.593 76 690.42 80.1727 690.42 85.32C690.42 90.4673 694.593 94.64 699.74 94.64Z" fill="#1F3A74"/>
<path opacity="0.76" d="M657.4 85.32C657.4 87.1633 657.946 88.9652 658.971 90.4979C659.995 92.0306 661.45 93.2251 663.153 93.9306C664.856 94.636 666.73 94.8205 668.538 94.4609C670.346 94.1013 672.007 93.2137 673.31 91.9102C674.614 90.6068 675.501 88.9461 675.861 87.1382C676.22 85.3303 676.036 83.4564 675.33 81.7534C674.625 80.0504 673.43 78.5948 671.898 77.5707C670.365 76.5466 668.563 76 666.72 76C664.248 76 661.877 76.9819 660.13 78.7298C658.382 80.4776 657.4 82.8482 657.4 85.32Z" fill="#1F3A74"/>
<path d="M198.68 109.02L771.22 109.02V106.68L198.68 106.68V109.02Z" fill="#1F3A74"/>
<path d="M782.88 175.84H780.88V161.84H782.88V175.84ZM782.88 149.66H780.88V104H782.88V149.66Z" fill="#1F3A74"/>
<path opacity="0.4" d="M782.88 175.84H780.88V161.84H782.88V175.84ZM782.88 149.66H780.88V104H782.88V149.66Z" fill="black"/>
<path d="M296.06 319.56H352.44V291.54H296.06V319.56Z" fill="#1F3A74"/>
<path opacity="0.6" d="M296.06 319.56H352.44V291.54H296.06V319.56Z" fill="white"/>
<path d="M255.78 504.54H360.1V476.52H255.78V504.54Z" fill="#1F3A74"/>
<path opacity="0.6" d="M255.78 504.54H360.1V476.52H255.78V504.54Z" fill="white"/>
<path d="M162 180.82L377.74 180.82V152.8L162 152.8V180.82Z" fill="#1F3A74"/>
<path opacity="0.6" d="M162 180.82L377.74 180.82V152.8L162 152.8V180.82Z" fill="white"/>
<path d="M162 227.06L336.32 227.06V199.04L162 199.04V227.06Z" fill="#1F3A74"/>
<path opacity="0.6" d="M162 227.06L336.32 227.06V199.04L162 199.04V227.06Z" fill="white"/>
<path d="M162 273.3H360.1V245.28L162 245.28V273.3Z" fill="#1F3A74"/>
<path opacity="0.6" d="M162 273.3H360.1V245.28L162 245.28V273.3Z" fill="white"/>
<path d="M162 319.56H272.64V291.54H162V319.56Z" fill="#1F3A74"/>
<path opacity="0.6" d="M162 319.56H272.64V291.54H162V319.56Z" fill="white"/>
<path d="M162 365.8H360.1V337.78H162V365.8Z" fill="#1F3A74"/>
<path opacity="0.6" d="M162 365.8H360.1V337.78H162V365.8Z" fill="white"/>
<path d="M162 412.04H377.74V384.02H162V412.04Z" fill="#1F3A74"/>
<path opacity="0.6" d="M162 412.04H377.74V384.02H162V412.04Z" fill="white"/>
<path d="M162 458.3H314.08V430.28H162V458.3Z" fill="#1F3A74"/>
<path opacity="0.6" d="M162 458.3H314.08V430.28H162V458.3Z" fill="white"/>
<path d="M162 504.54H232.38V476.52H162V504.54Z" fill="#1F3A74"/>
<path opacity="0.6" d="M162 504.54H232.38V476.52H162V504.54Z" fill="white"/>
<path d="M250.273 599.792C254.639 573.756 237.072 549.111 211.037 544.745C185.001 540.378 160.355 557.945 155.989 583.981C151.623 610.016 169.19 634.662 195.225 639.028C221.261 643.394 245.906 625.828 250.273 599.792Z" fill="#1F3A74"/>
<path opacity="0.6" d="M250.273 599.792C254.639 573.756 237.072 549.111 211.037 544.745C185.001 540.378 160.355 557.945 155.989 583.981C151.623 610.016 169.19 634.662 195.225 639.028C221.261 643.394 245.906 625.828 250.273 599.792Z" fill="white"/>
<path d="M208 583.58C196.64 580.1 189.6 567.74 189.6 567.74C189.6 567.74 186.02 567.54 185.84 570.78C185.77 572.966 186.154 575.143 186.966 577.173C187.778 579.204 189.002 581.045 190.56 582.58L185.1 582.28C183.152 582.175 181.201 582.384 179.32 582.9L177.5 583.38C176 583.798 174.72 584.783 173.933 586.126C173.145 587.47 172.911 589.067 173.28 590.58L176 601.2C176.765 604.406 178.701 607.21 181.429 609.061C184.157 610.911 187.478 611.675 190.74 611.2C196.3 610.38 204.96 609.2 206.46 608.84L210.46 608.52L211.8 584.7L208 583.58Z" fill="white"/>
<path d="M225.8 580.28H210.5C209.307 580.28 208.34 581.247 208.34 582.44V609.48C208.34 610.673 209.307 611.64 210.5 611.64H225.8C226.993 611.64 227.96 610.673 227.96 609.48V582.44C227.96 581.247 226.993 580.28 225.8 580.28Z" fill="#1F3A74"/>
<path d="M358.127 625.689C376.794 607.022 376.794 576.757 358.127 558.09C339.46 539.423 309.194 539.423 290.527 558.09C271.86 576.757 271.86 607.022 290.527 625.689C309.194 644.356 339.46 644.356 358.127 625.689Z" fill="#1F3A74"/>
<path opacity="0.6" d="M358.127 625.689C376.794 607.022 376.794 576.757 358.127 558.09C339.46 539.423 309.194 539.423 290.527 558.09C271.86 576.757 271.86 607.022 290.527 625.689C309.194 644.356 339.46 644.356 358.127 625.689Z" fill="white"/>
<path d="M348.14 574.8C346.576 573.236 344.719 571.995 342.676 571.148C340.632 570.301 338.442 569.865 336.23 569.865C334.018 569.865 331.827 570.301 329.784 571.148C327.74 571.995 325.884 573.236 324.32 574.8C321.161 571.641 316.877 569.867 312.41 569.867C307.943 569.867 303.658 571.641 300.5 574.8C297.341 577.959 295.566 582.243 295.566 586.71C295.566 591.177 297.341 595.461 300.5 598.62L324.32 622.44L348.14 598.62C351.289 595.457 353.058 591.174 353.058 586.71C353.058 582.246 351.289 577.964 348.14 574.8Z" fill="#1F3A74"/>
<path d="M415.5 175.84V659.84H720.66V175.84H415.5ZM701.3 640.44H437.64V195.22H701.3V640.44Z" fill="#1F3A74"/>
<path opacity="0.8" d="M415.5 175.84V659.84H720.66V175.84H415.5ZM701.3 640.44H437.64V195.22H701.3V640.44Z" fill="white"/>
</svg>
